# xmcd CD database file generated by OrangeCD 6.0
#
# Track frame offsets:
#	150
#	21903
#	44032
#	67339
#	85633
#	105164
#	123178
#	141382
#	162541
#	186358
#	208729
#
# Disc length: 3210 seconds
#
# Revision: 1
# Processed by: cddbd v1.5.1PL2 Copyright (c) Steve Scherf et al.
# Submitted via: OrangeCD 6.0
#
DISCID=a20c880b
DTITLE=The Campbell Brothers - Sacred Steel for the Holidays
DYEAR=1900
DGENRE=Blues
TTITLE0=Silent Night
TTITLE1=God Rest Ye Merry Gentlemen
TTITLE2=Go Tell It On the Mountain
TTITLE3=Rock of Ages
TTITLE4=The Dreydl Song (Dreidel-Hanukka)
TTITLE5=Joy To the World
TTITLE6=What Child Is This
TTITLE7=Hark the Herald Angels Sing
TTITLE8=The First Noel
TTITLE9=The Little Drummer Boy
TTITLE10=The Christmas Song
EXTD=
EXTT0=
EXTT1=
EXTT2=
EXTT3=
EXTT4=
EXTT5=
EXTT6=
EXTT7=
EXTT8=
EXTT9=
EXTT10=
PLAYORDER=
